# xmcd
#
# Track frame offsets: 
#        150
#        16336
#        28204
#        52539
#
# Disc length: 1404 seconds
#
# Revision: 1
# Processed by: cddbd v1.5.2PL0 Copyright (c) Steve Scherf et al.
# Submitted via: ExactAudioCopy v0.99pb5
#
DISCID=23057a04
DTITLE=Kiljanski Krzysztof - In the room - CD 2
DYEAR=2005
DGENRE=Jazz
TTITLE0=Od Swiat Do Swiat
TTITLE1=Blow Wind Blow
TTITLE2=Kolysanka
TTITLE3=Data Track
EXTD=YEAR: 2005
EXTT0=
EXTT1=
EXTT2=
EXTT3=
PLAYORDER=
